<svg width="851" height="240" viewBox="0 0 851 240" fill="none" xmlns="http://www.w3.org/2000/svg">
<rect x="0.5" y="1.5" width="47" height="47" rx="3.5" stroke="#B8B8B8"/>
<rect x="0.5" y="192.5" width="47" height="47" rx="3.5" stroke="#B8B8B8"/>
<rect x="803.5" y="1.5" width="47" height="238" rx="3.5" stroke="#B8B8B8"/>
<rect x="85.5" y="1.5" width="680" height="238" rx="3.5" stroke="#B8B8B8"/>
<path d="M221 167.851L258.224 106.121C273.777 80.3284 311.179 80.3284 326.732 106.121L384.503 201.925C390.937 212.594 406.054 213.536 413.762 203.747L422.405 192.771C426.654 187.373 435.102 188.352 438.005 194.577V194.577C441.214 201.455 450.893 201.729 454.485 195.043L517.778 77.2221C529.131 56.0873 559.42 56.0268 570.858 77.116V77.116C582.426 98.4441 613.162 98.0771 624.217 76.479L632 61.2732" stroke="white" stroke-width="2"/>
<line x1="219.5" y1="2.18556e-08" x2="219.5" y2="240" stroke="#B8B8B8" stroke-dasharray="2 2"/>
<line x1="632.5" y1="2.18556e-08" x2="632.5" y2="240" stroke="#B8B8B8" stroke-dasharray="2 2"/>
</svg>
